{
  "accessors": [
    {
      "bufferView": 2,
      "componentType": 5126,
      "count": 8932,
      "max": [
        0.16893389821052551,
        1.0925824642181396,
        0.59204316139221191
      ],
      "min": [
        -0.16840760409832001,
        0.00010176134674111381,
        -0.59080761671066284
      ],
      "type": "VEC3"
    },
    {
      "bufferView": 2,
      "byteOffset": 107184,
      "componentType": 5126,
      "count": 8932,
      "max": [
        0.99996322393417358,
        0.99945491552352905,
        0.9996875524520874
      ],
      "min": [
        -0.99980449676513672,
        -0.99820399284362793,
        -0.99979251623153687
      ],
      "type": "VEC3"
    },
    {
      "bufferView": 3,
      "componentType": 5126,
      "count": 8932,
      "max": [
        0.99980294704437256,
        0.99997425079345703,
        0.99999505281448364,
        1
      ],
      "min": [
        -0.999225914478302,
        -0.99997711181640625,
        -0.99998807907104492,
        -1
      ],
      "type": "VEC4"
    },
    {
      "bufferView": 3,
      "byteOffset": 142912,
      "componentType": 5126,
      "count": 8932,
      "max": [
        1,
        1,
        1,
        1
      ],
      "min": [
        1,
        1,
        1,
        1
      ],
      "type": "VEC4"
    },
    {
      "bufferView": 1,
      "componentType": 5126,
      "count": 8932,
      "max": [
        0.99831414222717285,
        0.99358248710632324
      ],
      "min": [
        0.00097465887665748596,
        0.00097465887665748596
      ],
      "type": "VEC2"
    },
    {
      "bufferView": 1,
      "byteOffset": 71456,
      "componentType": 5126,
      "count": 8932,
      "max": [
        0.99831414222717285,
        0.99358248710632324
      ],
      "min": [
        0.00097465887665748596,
        0.00097465887665748596
      ],
      "type": "VEC2"
    },
    {
      "bufferView": 0,
      "componentType": 5125,
      "count": 30342,
      "max": [
        8931
      ],
      "min": [
        0
      ],
      "type": "SCALAR"
    }
  ],
  "asset": {
    "extras": {
      "author": "David Wigforss (https://sketchfab.com/dwigfor)",
      "license": "CC-BY-NC-4.0 (http://creativecommons.org/licenses/by-nc/4.0/)",
      "source": "https://sketchfab.com/3d-models/dog-anatomy-1-3cc3b755813446a5adbd8c9faa37f30d",
      "title": "Dog Anatomy 1"
    },
    "generator": "Sketchfab-5.46.0",
    "version": "2.0"
  },
  "bufferViews": [
    {
      "buffer": 0,
      "byteLength": 121368,
      "byteOffset": 0,
      "name": "floatBufferViews",
      "target": 34963
    },
    {
      "buffer": 0,
      "byteLength": 142912,
      "byteOffset": 121368,
      "byteStride": 8,
      "name": "floatBufferViews",
      "target": 34962
    },
    {
      "buffer": 0,
      "byteLength": 214368,
      "byteOffset": 264280,
      "byteStride": 12,
      "name": "floatBufferViews",
      "target": 34962
    },
    {
      "buffer": 0,
      "byteLength": 285824,
      "byteOffset": 478648,
      "byteStride": 16,
      "name": "floatBufferViews",
      "target": 34962
    }
  ],
  "buffers": [
    {
      "byteLength": 764472,
      "uri": "scene.bin"
    }
  ],
  "images": [
    {
      "uri": "textures/MAT_DogAnatomy1_baseColor.jpeg"
    },
    {
      "uri": "textures/MAT_DogAnatomy1_normal.png"
    }
  ],
  "materials": [
    {
      "doubleSided": true,
      "emissiveFactor": [
        0,
        0,
        0
      ],
      "name": "MAT_DogAnatomy1",
      "normalTexture": {
        "index": 1,
        "scale": 1,
        "texCoord": 0
      },
      "pbrMetallicRoughness": {
        "baseColorFactor": [
          1,
          1,
          1,
          1
        ],
        "baseColorTexture": {
          "index": 0,
          "texCoord": 0
        },
        "metallicFactor": 0,
        "roughnessFactor": 0.95770514949999996
      }
    }
  ],
  "meshes": [
    {
      "name": "geo1_MAT_DogAnatomy1_0",
      "primitives": [
        {
          "attributes": {
            "COLOR_0": 3,
            "NORMAL": 1,
            "POSITION": 0,
            "TANGENT": 2,
            "TEXCOORD_0": 4,
            "TEXCOORD_1": 5
          },
          "indices": 6,
          "material": 0,
          "mode": 4
        }
      ]
    }
  ],
  "nodes": [
    {
      "children": [
        1
      ],
      "name": "RootNode (gltf orientation matrix)",
      "rotation": [
        -0.70710678118654746,
        -0,
        -0,
        0.70710678118654757
      ]
    },
    {
      "children": [
        2
      ],
      "name": "RootNode (model correction matrix)"
    },
    {
      "children": [
        3
      ],
      "matrix": [
        1,
        0,
        0,
        0,
        0,
        0,
        1,
        0,
        0,
        -1,
        0,
        0,
        0,
        0,
        0,
        1
      ],
      "name": "mesh.fbx"
    },
    {
      "children": [
        4
      ],
      "name": "RootNode"
    },
    {
      "children": [
        5
      ],
      "name": "geo1"
    },
    {
      "mesh": 0,
      "name": "geo1_MAT_DogAnatomy1_0"
    }
  ],
  "samplers": [
    {
      "magFilter": 9729,
      "minFilter": 9987,
      "wrapS": 10497,
      "wrapT": 10497
    }
  ],
  "scene": 0,
  "scenes": [
    {
      "name": "OSG_Scene",
      "nodes": [
        0
      ]
    }
  ],
  "textures": [
    {
      "sampler": 0,
      "source": 0
    },
    {
      "sampler": 0,
      "source": 1
    }
  ]
}

